<?xml version="1.0" encoding="utf-8"?>
<!-- Generator: Adobe Illustrator 21.1.0, SVG Export Plug-In . SVG Version: 6.00 Build 0)  -->
<svg version="1.1" id="Layer_1" xmlns="http://www.w3.org/2000/svg" xmlns:xlink="http://www.w3.org/1999/xlink" x="0px" y="0px"
	 viewBox="0 0 447.2 85.1" style="enable-background:new 0 0 447.2 85.1;" xml:space="preserve">
<style type="text/css">
	.st0{fill:#F47A20;}
	.st1{fill:#FBAD18;}
</style>
<g>
	<g>
		<g>
			<path class="st0" d="M39.2,21.6l-0.1,0.9l0.1,1.9l-0.1,1l-0.1,0.5l-0.1,0.8l-0.2,0.4l-0.4,0.3l-0.7,0.1h-1l-1.9-0.2l-1-0.1
				l-2.9,0.2h-1l-1.6-0.1h-0.9L27,27.4l-0.6,0.2L26.1,28L26,28.8l-0.2,3.7v1l0.2,3.8l-0.1,1L25.7,42l-0.1,1l0.1,3.7v5.8l-0.1,3.7
				l0.1,0.9l0.3,2.8l0.1,1l-0.2,0.8l-0.3,0.3l-0.8,0.1L23.6,62l-1.6-0.2L21,61.7l-2.8,0.2h-1l-2.8-0.2l-0.7-0.1l-0.4-0.2l-0.1-0.7
				v-1.1l0.2-2.6l0.1-1v-4.7l0.1-3.8v-1l0.1-3.7v-1l-0.2-3.8l-0.1-1v-4.8l-0.1-3.7v-0.9l-0.2-0.5l-0.6-0.1h-0.9l-2,0.1H8.2l-1.7-0.1
				l-1.1-0.1l-1.1,0.1L3,27.4H2.1l-0.5-0.1l-0.7-0.1l-0.4-0.2l-0.2-0.4l-0.1-0.6v-0.4l-0.1-1l0.1-1.9v-0.9L0,19.3l0.1-1l0.2-0.8
				l0.2-0.4l0.4-0.2l0.6-0.1h1.4l2.3,0.2h1l3.6-0.2h1l3.7,0.3h1l4.6-0.3l3.6,0.1h1l4.7-0.1H34l2.1-0.1l1.1,0.1l0.5,0.1l0.7,0.1
				l0.4,0.2l0.3,0.4l0.1,0.8v0.4l0.1,0.9L39.2,21.6z"/>
			<path class="st0" d="M90.6,38.7l-0.1,1l-0.1,1.4l-0.1,0.9L89.9,44l-0.1,1.4l-0.1,0.9l-0.2,1l-0.2,0.9l-0.6,1.3l-0.4,0.9l-1.7,2.8
				l-0.6,0.8l-0.6,0.8l-0.6,0.7l-1,1.1L83,57.3l-0.8,0.6l-0.7,0.6l-1.1,0.8l-0.8,0.5l-0.9,0.5l-0.9,0.4l-1.2,0.5l-0.9,0.2l-2,0.6
				l-1.1,0.3l-1,0.2l-1.1,0.2L69.3,63l-1.1,0.1h-3.4l-2.1-0.1l-2.1-0.2l-0.9-0.2l-0.9-0.2l-3.4-1.1l-1-0.3l-1.1-0.4l-2-0.9L50.6,59
				l-0.9-0.6l-0.8-0.6L48,57.1l-0.7-0.8l-0.7-0.8l-1.7-1.7l-0.6-0.8l-0.6-0.8l-0.5-0.8l-0.5-1.2l-0.9-2.8l-0.4-1.3l-0.2-0.9l-0.2-1
				l-0.2-0.9l-0.2-1.4l-0.1-0.9l-0.1-1.1v-1.1l0.1-1.1l0.1-1.1l0.1-1.1l0.2-1.1l0.2-1.1l0.3-1.1l0.3-0.9l0.4-1l0.4-1.4l0.4-1
				l0.2-0.6l0.5-0.9l0.9-1.4l0.6-0.9l0.3-0.5l0.7-0.8l1.1-0.9l0.8-0.6l0.8-0.6l1.9-1.2l0.8-0.5l0.9-0.5l0.9-0.4l1.3-0.6l0.9-0.3
				l0.9-0.3l0.9-0.2l2.4-0.4l0.9-0.2l3.1-0.4l2-0.1l1.9,0.1l1.5,0.1l1.1,0.1l1.1,0.2l1.1,0.2l1.1,0.2l1,0.2l0.9,0.2l0.9,0.3l1.3,0.5
				l0.9,0.4l2.1,1.2l0.8,0.6l0.8,0.6l1.1,1l0.7,0.6l0.7,0.7l0.6,0.8l0.9,1.2l0.5,0.8l0.4,0.8l0.5,0.8l0.7,1.2l0.5,0.8l0.4,0.9
				l0.3,0.9l0.3,1.4l0.4,1.9l0.1,1.1l0.2,1.1L90.6,38.7z M75.4,46.9l0.6-0.9l0.6-1.4l0.4-0.9l0.3-1.4l0.1-0.9l0.1-1.5v-1.1l-0.1-1.1
				l-0.1-1L77,34.8l-0.2-0.9l-0.7-1.4l-0.5-0.8l-0.9-1.1l-0.6-0.7l-0.9-1l-0.7-0.6l-1.6-0.9L70,27.1l-1-0.3l-1-0.2l-2-0.1L65,26.5
				l-1.4,0.1l-0.9,0.2l-1.6,0.4l-1,0.4l-1.4,0.8l-0.9,0.6l-1,0.9l-0.7,0.8l-0.7,0.9l-0.5,0.8l-0.2,0.4l-0.6,1.3l-0.3,0.9l-0.2,0.4
				l-0.2,0.9l-0.1,0.9l-0.1,0.9l-0.1,0.9v0.9l0.1,1l0.2,1l0.1,0.6l0.2,0.9l0.1,0.4l0.3,0.9l0.2,0.5L55,46l0.3,0.5l0.7,0.9l0.4,0.4
				l0.7,0.8l1.2,1.1l0.9,0.6l1,0.5l0.9,0.4l1.3,0.4l0.9,0.2l1.6,0.2l1.1,0.1l1.6-0.1l1-0.1l1.4-0.3l0.9-0.4l1.4-0.9l0.7-0.6l1-1
				l0.6-0.7L75.4,46.9z"/>
			<path class="st0" d="M137.1,60.6l0.3,0.6l-0.2,0.3l-0.2,0.4l-0.4,0.2h-0.8l-3.4-0.2h-1l-3.9-0.1h-1l-4,0.2l-0.7-0.1l-0.6-0.4
				L119,59l-0.6-0.8l-1.9-2.8l-0.6-0.7l-2.4-2.4l-0.6-0.8l-2.1-2.4l-0.5-0.7l-0.3-0.6l-0.4-0.2l-0.4,0.2l-0.1,0.8v4.3l-0.1,3.4v1
				L109,59v0.9l-0.1,0.9l-0.1,0.6l-0.3,0.2l-0.7,0.1l-1.9,0.1H104l-2.9-0.2l-1,0.1L97,62.1l-0.5-0.2l-0.2-0.4l-0.1-0.6l-0.1-0.9v-1
				l0.1-1.6l0.1-1.1L96,53.1v-4.4l0.1-1l0.2-3.4l0.1-1v-4.4l-0.1-3.4v-1l0.1-3.4v-1l-0.1-7.8v-1l0.2-3.4l0.1-0.8l0.2-0.3l0.6-0.1
				l0.9,0.1l1.9,0.2h1l2.9-0.2h1l2.9,0.2l0.7,0.1l0.3,0.2l0.2,0.5l0.1,0.6l-0.1,0.8l-0.2,2.1l-0.1,1l0.2,3.3v1l0.1,3.3l0.1,0.7
				l0.5,0.1l0.7-0.4l1.9-2.7l3.4-4.1l1.9-2.7l0.6-0.8l2.2-2.5l0.5-0.5l0.6-0.1l2.9-0.2h1l3.8,0.2l2.4,0.1h1l2.4-0.1l0.7,0.1l0.3,0.2
				l0.1,0.1l-0.1,0.2l-0.5,0.6l-2.4,2.6l-0.6,0.8l-2.2,2.9l-0.6,0.8l-2.4,2.7l-0.6,0.8l-2.3,2.8l-0.6,0.7l-2.2,2.8l-0.7,0.8
				l-1.6,1.4l-0.7,0.8l-0.3,0.4l-0.3,0.5L118,39l0.4,0.6l2.3,3.1l0.7,0.8l2.7,2.8l0.6,0.8l2.4,3l0.6,0.8l2.6,2.9l0.6,0.8l2.7,2.8
				l0.6,0.8L137.1,60.6z"/>
			<path class="st0" d="M185,17.4l-0.4,0.6l-4.5,6.6l-0.6,0.8l-2.1,2.9l-0.6,0.8l-1.7,3.1l-0.6,0.9l-1.9,2.9l-0.6,0.9l-2,2.9
				l-0.6,0.8l-2.1,2.9l-0.2,0.5v5.1l0.2,3.4l-0.1,1l-0.2,3.4v1l0.2,2.6l0.1,0.9l-0.2,0.5l-0.2,0.2l-0.6,0.1h-4.1l-7.3-0.2l-0.2-0.2
				l-0.1-0.6v-7.7l-0.1-1l-0.2-3.4l-0.1-1l0.2-3.4l-0.1-0.6l-0.4-0.4l-1.7-3l-0.6-0.9l-2-2.8l-0.6-0.9l-1.8-3l-0.5-0.9l-4.4-6.6
				l-0.5-0.9l-1.9-2.9l-0.5-0.9l-1.8-3l-0.2-0.6l0.1-0.3l0.4-0.2h8.3l1,0.1l3.6,0.2l0.7,0.1l0.2,0.2l1.8,3.1l0.5,0.8l1.9,2.8
				l0.5,0.8l1.6,2.9l0.6,0.9l1.7,2.7l0.4,0.6l0.4,0.1l0.4-0.4l1.6-3l0.6-0.8l1.9-2.8l0.6-0.8l1.6-2.9l0.5-0.9l1.7-2.9l0.5-0.6
				l0.5-0.1l0.7,0.1l3.1,0.2h1l3.6-0.2h1l3.6,0.2l0.7,0.1l0.3,0.1L185,17.4z"/>
			<path class="st0" d="M230.9,38.7l-0.1,1l-0.1,1.4l-0.1,0.9l-0.4,1.9l-0.1,1.4l-0.1,0.9l-0.2,1l-0.2,0.9l-0.6,1.3l-0.4,0.9
				l-1.7,2.8l-0.6,0.8l-0.6,0.8l-0.6,0.7l-1,1.1l-0.7,0.6l-0.8,0.6l-0.7,0.6l-1.1,0.8l-0.8,0.5l-0.9,0.5l-0.9,0.4l-1.2,0.5l-0.9,0.2
				l-2,0.6l-1.1,0.3l-1,0.2l-1.1,0.2l-1.1,0.2l-1.1,0.1h-3.4l-2.1-0.1l-2.1-0.2l-0.9-0.2l-0.9-0.2l-3.4-1.1l-1-0.3l-1.1-0.4l-2-0.9
				l-0.9-0.5l-0.9-0.6l-0.8-0.6l-0.8-0.7l-0.7-0.8l-0.7-0.8l-1.7-1.7l-0.6-0.8l-0.6-0.8l-0.5-0.8l-0.5-1.2l-0.9-2.8l-0.4-1.3
				l-0.2-0.9l-0.2-1l-0.2-0.9l-0.2-1.4l-0.1-0.9l-0.1-1.1v-1.1l0.1-1.1l0.1-1.1l0.1-1.1l0.2-1.1l0.2-1.1l0.3-1.1l0.3-0.9l0.4-1
				l0.4-1.4l0.4-1l0.2-0.6l0.5-0.9l0.9-1.4l0.6-0.9l0.3-0.5l0.7-0.8l1.1-0.9l0.8-0.6l0.8-0.6l1.9-1.2l0.8-0.5l0.9-0.5l0.9-0.4
				l1.3-0.6l0.9-0.3l0.9-0.3l0.9-0.2l2.4-0.4l0.9-0.2l3.1-0.4l2-0.1l1.9,0.1l1.5,0.1l1.1,0.1l1.1,0.2l1.1,0.2l1.1,0.2l1,0.2l0.9,0.2
				l0.9,0.3l1.3,0.5l0.9,0.4l2.1,1.2l0.8,0.6l0.8,0.6l1.1,1l0.7,0.6l0.7,0.7l0.6,0.8l0.9,1.2l0.5,0.8l0.4,0.8l0.5,0.8l0.7,1.2
				l0.5,0.8l0.4,0.9l0.3,0.9l0.3,1.4l0.4,1.9l0.1,1.1l0.2,1.1L230.9,38.7z M215.7,46.9l0.6-0.9l0.6-1.4l0.4-0.9l0.3-1.4l0.1-0.9
				l0.1-1.5v-1.1l-0.1-1.1l-0.1-1l-0.4-1.9l-0.2-0.9l-0.7-1.4l-0.5-0.8l-0.9-1.1l-0.6-0.7l-0.9-1l-0.7-0.6l-1.6-0.9l-0.9-0.4l-1-0.3
				l-1-0.2l-2-0.1l-0.9,0.1l-1.4,0.1l-0.9,0.2l-1.6,0.4l-1,0.4l-1.4,0.8l-0.9,0.6l-1,0.9l-0.7,0.8l-0.7,0.9l-0.5,0.8l-0.2,0.4
				l-0.6,1.3l-0.3,0.9l-0.2,0.4l-0.2,0.9l-0.1,0.9l-0.1,0.9l-0.1,0.9v0.9l0.1,1l0.2,1l0.1,0.6l0.2,0.9l0.1,0.4l0.3,0.9l0.2,0.5
				l0.5,0.9l0.3,0.5l0.7,0.9l0.4,0.4l0.7,0.8l1.2,1.1l0.9,0.6l1,0.5l0.9,0.4l1.3,0.4l0.9,0.2l1.6,0.2l1.1,0.1l1.6-0.1l1-0.1l1.4-0.3
				l0.9-0.4l1.4-0.9l0.7-0.6l1-1l0.6-0.7L215.7,46.9z"/>
			<path class="st1" d="M271.2,21.6l-0.1,0.9l0.1,1.9l-0.1,1l-0.1,0.5l-0.1,0.8l-0.2,0.4l-0.4,0.3l-0.7,0.1h-1l-1.9-0.2l-1-0.1
				l-2.9,0.2h-1l-1.6-0.1h-0.9l-0.4,0.1l-0.6,0.2l-0.2,0.4l-0.1,0.8l-0.2,3.7v1l0.2,3.8l-0.1,1l-0.2,3.8l-0.1,1l0.1,3.7v5.8
				l-0.1,3.7l0.1,0.9l0.3,2.8l0.1,1l-0.2,0.8l-0.3,0.3l-0.8,0.1l-1.2-0.1l-1.6-0.2l-1.1-0.1l-2.8,0.2h-1l-2.8-0.2l-0.7-0.1l-0.4-0.2
				l-0.1-0.7v-1.1l0.2-2.6l0.1-1v-4.7l0.1-3.8v-1l0.1-3.7v-1l-0.2-3.8l-0.1-1v-4.8l-0.1-3.7v-0.9l-0.2-0.5l-0.6-0.1h-0.9l-2,0.1
				h-1.1l-1.7-0.1l-1.1-0.1l-1.1,0.1l-1.4,0.1h-0.9l-0.5-0.1l-0.7-0.1l-0.4-0.3l-0.2-0.4l-0.1-0.6v-0.4l-0.1-1l0.1-1.9v-0.9
				l-0.2-2.4l0.1-1l0.2-0.8l0.2-0.4l0.4-0.2l0.6-0.1h1.4l2.3,0.2h1l3.6-0.2h1l3.7,0.3h1l4.6-0.3l3.6,0.1h1l4.7-0.1h4.6l2.1-0.1
				l1.1,0.1l0.5,0.1l0.7,0.1l0.4,0.2l0.3,0.4l0.1,0.8v0.4l0.1,0.9L271.2,21.6z"/>
			<path class="st1" d="M318.3,61.6l-0.8,0.2h-4.4l-3.4-0.1h-1l-2.8,0.1h-0.8l-0.6-0.2l-0.5-0.5l-2-2.8l-0.6-0.8l-2-2.7l-0.6-0.8
				l-1.7-2.9l-0.6-0.8l-2-2.7l-0.4-0.5l-0.4-0.2l-0.7-0.1l-2-0.1l-0.8,0.1l-0.5,0.4l-0.2,0.8l-0.1,3.4l0.1,1l0.2,3.5l0.1,1l0.1,1.5
				v1l-0.1,1l-0.1,0.8l-0.3,0.3l-0.7,0.2h-1l-3-0.2l-2.9,0.2h-1l-2.9-0.2l-0.7-0.1l-0.4-0.2l-0.1-0.6l-0.1-0.9l-0.1-0.9l0.1-1.6
				l0.1-1l0.2-3.4v-1l-0.2-3.4l-0.1-1l-0.1-3.3v-1l0.2-3.4v-1l-0.2-3.4v-1l0.2-3.4v-1l0.1-3.3v-1l-0.1-3.4v-1l-0.1-2.1l0.1-0.9
				L277,18l0.2-0.8l0.4-0.5l0.7-0.2l0.5-0.1l0.9-0.1l2.8,0.1l7.4,0.2l4.2-0.2h1l4.1,0.2h2.4l1.1,0.1l0.9,0.2l1.3,0.4l0.9,0.3
				l0.9,0.4l1,0.4l0.9,0.4l0.8,0.5l1.2,0.8l0.7,0.6l0.6,0.6l0.6,0.8l0.9,1.2l0.6,0.8l0.7,1.2l0.4,0.9l0.4,0.9l0.3,1l0.2,1l0.1,1
				l0.1,1.4v1l-0.1,1l-0.1,1.1l-0.2,1.1l-0.2,1l-0.4,0.9l-0.4,0.9l-0.6,0.9l-0.6,0.8l-0.6,0.8l-0.6,0.7l-1,1l-0.7,0.6l-1.2,0.7
				l-0.7,0.4l-0.8,0.4l-0.8,0.2l-0.5,0.2l0.2,0.5l2.2,3.2l0.6,0.8l2.2,3.1l0.6,0.8l2.2,3.1l0.6,0.8l1.9,2.2l0.6,0.7l0.3,0.7
				L318.3,61.6z M299.5,37.5l1.4-0.2l0.8-0.3l0.7-0.4l0.6-0.8l0.4-0.9l0.2-1l0.1-1l-0.1-1.1l-0.1-1.1l-0.2-0.9l-0.4-0.9l-0.6-0.8
				l-0.7-0.6l-0.9-0.4l-1.4-0.3l-1-0.1l-3.1-0.1h-1l-3.2,0.2l-0.7,0.1l-0.4,0.2l-0.4,0.4l-0.1,0.7l0.1,1.4l0.1,1l0.1,1.1l0.1,1.1
				l-0.1,3.4l0.1,0.7l0.1,0.4l0.4,0.2l0.7,0.1l3.2,0.2h1L299.5,37.5z"/>
			<path class="st1" d="M359.5,55.9l-0.1,1l-0.2,3.4l-0.1,0.6l-0.2,0.4l-0.3,0.2l-8.2,0.2h-1l-3.3-0.2l-1,0.1l-3.2,0.2l-1,0.1h-4.3
				l-3.2-0.2h-1l-5.4,0.3l-2.1-0.1l-0.7-0.1l-0.4-0.3l-0.2-0.4l-0.1-0.7l-0.1-1.4l-0.1-1l0.1-0.9v-0.9l0.2-3.3v-1l0.1-3.3l-0.1-1
				l-0.2-3.3l-0.1-1l0.1-3.4v-5.3l0.2-3.3l-0.1-1l-0.2-3.3l-0.1-1v-1.5l0.1-1.9v-0.9l0.2-3.2l0.1-0.9l0.2-0.5l0.3-0.2l0.5-0.1
				l0.8-0.1l4,0.2l3.8-0.1h1l3.7,0.2h1l3.7-0.2h1l8.5,0.1l1.1-0.1l2.1-0.2h1.6l0.9,0.2l0.4,0.3l0.1,0.4l0.1,0.8v1.7l-0.1,1.6v1.1
				l0.1,1.6l0.1,0.9l-0.1,0.9l-0.1,0.8l-0.2,0.4l-0.3,0.2l-0.7,0.1h-0.5l-1,0.1l-5.9-0.1h-1l-3.2,0.1h-1l-3.2-0.1l-2.8-0.2h-0.9
				l-0.5,0.1l-0.6,0.1l-0.3,0.3l-0.1,0.4l-0.1,0.7l-0.1,1.5v1l0.1,1.1l0.1,0.7l0.1,0.4l0.2,0.3l0.7,0.2l2,0.1l2-0.1h5.9l7-0.4
				l1.9,0.1l0.7,0.1l0.4,0.3l0.2,0.4l0.1,0.7l0.1,1.1l0.1,1.1v2.1l0.1,1.4l-0.1,1.9l-0.1,0.8l-0.2,0.4l-0.4,0.3l-0.6,0.1h-1.2
				l-2.8-0.3l-1-0.1l-5,0.3l-4-0.1h-1l-2.5-0.2l-1.1,0.1l-0.7,0.1l-0.3,0.2l-0.2,0.4l-0.1,0.9l-0.2,1.6l-0.1,1v1.4l0.1,0.6l0.2,0.4
				l0.2,0.2l0.7,0.1l3.4,0.1h1l3.4-0.2l4.4,0.2h1l4.4-0.2h0.9l0.9,0.1l2.2,0.2l0.4,0.2l0.2,0.4l0.1,0.7L359.5,55.9z"/>
			<path class="st1" d="M447,21.6l-0.1,0.9l0.1,1.9l-0.1,1l-0.1,0.5l-0.1,0.8l-0.2,0.4l-0.4,0.3l-0.7,0.1h-1l-1.9-0.2l-1-0.1
				l-2.9,0.2h-1l-1.6-0.1h-0.9l-0.4,0.1l-0.6,0.2l-0.2,0.4l-0.1,0.8l-0.2,3.7v1l0.2,3.8l-0.1,1l-0.2,3.8l-0.1,1l0.1,3.7v5.8
				l-0.1,3.7l0.1,0.9l0.3,2.8l0.1,1l-0.2,0.8l-0.3,0.3l-0.8,0.1l-1.2-0.1l-1.6-0.2l-1.1-0.1l-2.8,0.2h-1l-2.8-0.2l-0.7-0.1l-0.4-0.2
				l-0.1-0.7v-1.1l0.2-2.6l0.1-1v-4.7l0.1-3.8v-1l0.1-3.7v-1l-0.2-3.8l-0.1-1v-4.8l-0.1-3.7v-0.9l-0.2-0.5l-0.6-0.1h-0.9l-2,0.1
				h-1.1l-0.7-0.1l-1.1-0.1l-1.1,0.1l-1.4,0.1h-0.9l-0.5-0.1l-0.7-0.1l-0.4-0.2l-0.2-0.4l-0.1-0.6v-0.4l-0.1-1l0.1-1.9v-0.9
				l-0.2-2.4l0.1-1l0.2-0.8l0.2-0.4l0.4-0.2l0.6-0.1h1.4l2.3,0.2h1l2.6-0.2h1l3.7,0.3h1l4.6-0.3l3.6,0.1h1l4.7-0.1h4.6l2.1-0.1
				l1.1,0.1l0.5,0.1l0.7,0.1l0.4,0.2l0.3,0.4l0.1,0.8v0.4l0.1,0.9L447,21.6z"/>
		</g>
	</g>
	<g>
		<path class="st1" d="M388.9,51.2c2.3,0,7.8,1,8.8,9c0.1,0.7,0.3,1.4,1.7,1.4s8.8,0,8.8,0s1.7-0.2,1-1.8
			c-0.9-1.5-7.8-13.2-7.8-13.2s-2.4-4.5-3.3-7l-1-2.4l0.9-2.9c0,0,0.5-1.6-0.9-1.6s-1,0-1,0s-3.2-8.9-3.5-15.2l-0.1-2.3
			c0,0-0.1-2.2,0-2.4c0.1-0.2,0.2-0.4,0.5-0.9c0.2-0.2,0.2-0.8,0.2-1.4V8.2c0,0,0-1.1-1.9-1.1c-1.7,0-1.9,0-1.9,0l-0.8-6.1h-0.4"/>
		<path class="st1" d="M399.4,62.6c-2.2,0-2.5-1.6-2.6-2.2c-1-7.5-5.9-8.3-7.9-8.3v-1.9c2,0,8.5,0.7,9.8,9.9
			c0.1,0.5,0.1,0.6,0.7,0.6h8.7c0.1,0,0.3-0.1,0.3-0.1l0,0c0,0,0-0.1-0.1-0.4c-1-1.7-7.7-13.1-7.7-13.1c-0.1-0.2-2.5-4.7-3.3-7.2
			l-1.1-2.6l0.9-3.3c0-0.1,0-0.3,0-0.4c0,0,0,0-0.1,0h-1v-0.9l-0.8,0.3c-0.1-0.4-3.2-9.1-3.5-15.5l-0.1-2.2c-0.1-2.4,0-2.6,0-2.7
			c0.1-0.2,0.2-0.5,0.5-1c0-0.2,0-0.6,0-0.9V8.2c0,0-0.3-0.2-0.9-0.2h-2.7l-1-6.9l0.5-0.1V0h1.3l0.8,6.1h1.1c1,0,1.7,0.3,2.2,0.8
			c0.6,0.6,0.6,1.2,0.6,1.3v2.4c0,0.9,0,1.5-0.3,1.9c-0.2,0.3-0.3,0.4-0.3,0.5c0,0.3,0,1.3,0,2.1l0.1,2.2c0.2,5.2,2.5,12.2,3.2,14.3
			h0.3c0.8,0,1.3,0.4,1.6,0.7c0.6,0.8,0.3,1.9,0.3,2.1l-0.8,2.6l0.8,2.1c0.8,2.5,3.2,6.9,3.2,6.9l0,0c0,0,6.9,11.7,7.8,13.2l0.1,0.1
			c0.4,1,0.2,1.7,0,2.1c-0.5,0.9-1.6,1-1.8,1L399.4,62.6z"/>
	</g>
	<g>
		<path class="st1" d="M388.5,0.9h-0.4L387.3,7c0,0-0.2,0-1.9,0c-1.8,0-1.9,1.1-1.9,1.1v2.4c0,0.5,0,1.2,0.2,1.4
			c0.3,0.4,0.4,0.7,0.5,0.9c0.1,0.2,0,2.4,0,2.4l-0.1,2.3c-0.3,6.3-3.5,15.2-3.5,15.2s0.4,0-1,0c-1.4,0-0.9,1.6-0.9,1.6l0.9,2.9
			l-1,2.4c-0.8,2.5-3.3,7-3.3,7s-6.9,11.7-7.8,13.2c-0.7,1.7,1,1.8,1,1.8s7.4,0,8.8,0s1.5-0.7,1.7-1.4c1.1-8,6.5-9,8.8-9l1.4,0
			l1.4-3.3"/>
		<path class="st1" d="M377.2,62.6h-8.8c-0.2,0-1.3-0.1-1.8-1c-0.2-0.4-0.5-1.1,0-2.1l0.1-0.1c0.9-1.5,7.8-13.2,7.8-13.2
			c0,0,2.4-4.4,3.2-6.9l0.9-2.1l-0.8-2.6c-0.1-0.2-0.3-1.3,0.3-2.1c0.2-0.3,0.7-0.7,1.6-0.7h0.3c0.7-2.1,3-9.1,3.2-14.3l0.1-2.3
			c0-0.8,0.1-1.8,0-2.1c0-0.1-0.1-0.3-0.3-0.5c-0.3-0.4-0.3-1-0.3-1.9V8.2c0-0.7,0.7-2.1,2.8-2.1h1.1l0.8-6.1h1.3v1l0.5,0.1l-1,6.9
			h-2.7c-0.6,0-0.9,0.2-0.9,0.3v2.3c0,0.3,0,0.7,0,0.9c0.3,0.5,0.5,0.8,0.5,1c0.1,0.2,0.1,0.3,0,2.7l-0.1,2.3
			c-0.3,6.4-3.4,15.1-3.5,15.5l-0.8-0.3v0.9h-1c0,0,0,0-0.1,0c0,0.1,0,0.3,0,0.4l0.9,3.3l-1.1,2.7c-0.8,2.5-3.2,6.9-3.3,7.1
			c0,0-6.7,11.4-7.7,13.2c-0.1,0.3-0.1,0.4-0.1,0.4c0,0.1,0.2,0.1,0.3,0.1l8.7,0c0.6,0,0.6-0.1,0.7-0.6c1.2-9.1,7.8-9.8,9.8-9.8
			l0.8,0l1.2-2.8l1.7,0.8l-1.7,3.9l-2,0c-2,0-6.9,0.8-7.9,8.2C379.7,61,379.5,62.6,377.2,62.6z M384.4,8.3
			C384.4,8.3,384.4,8.3,384.4,8.3L384.4,8.3L384.4,8.3z"/>
	</g>
</g>
</svg>
